<svg width="116" height="20" viewBox="0 0 116 20" fill="none" xmlns="http://www.w3.org/2000/svg">
<path d="M0 0.951172H14.4774V4.20858H0V0.951172Z" fill="#00CD9B"/>
<path d="M0 8.37083H14.4774V11.6282H0V8.37083Z" fill="#00938C"/>
<path d="M0 15.7905H14.4774V19.0479H0V15.7905Z" fill="#005462"/>
<path d="M25.1544 11.3568H18.4587V8.64228H25.1544V11.3568Z" fill="#111111"/>
<path d="M43.3825 6.51547H39.8005C39.6105 4.77982 38.4979 3.93752 36.2184 3.93752C34.1017 3.93752 32.9891 4.6522 32.9891 5.92841C32.9891 7.00043 33.7761 7.61301 35.7842 8.07245C37.8195 8.53189 39.8005 8.99132 41.1302 9.55286C42.7041 10.2165 43.9524 11.263 43.9524 13.6623C43.9524 17.3888 40.9673 19.0479 36.7611 19.0479C32.3107 19.0479 29.2171 17.1846 29.1357 13.3815H32.772C32.8263 15.1172 34.3731 16.1892 36.7883 16.1892C39.0135 16.1892 40.2889 15.2958 40.2889 13.7899C40.2889 12.7944 39.7462 12.1053 37.4938 11.6459C35.2686 11.1864 33.8304 10.8801 32.555 10.3441C30.6282 9.52734 29.5428 8.30217 29.5428 6.15813C29.5428 3.12074 31.7409 0.951172 36.137 0.951172C40.696 0.951172 43.2468 3.27388 43.3825 6.51547Z" fill="#111111"/>
<path d="M59.0946 12.6413H62.8666C62.1068 16.4955 59.2845 19.0479 55.1055 19.0479C50.3837 19.0479 46.7745 16.0105 46.7745 10.191C46.7745 4.448 50.0038 0.951172 55.1598 0.951172C59.6644 0.951172 62.5138 3.65675 62.8666 7.077H59.0946C58.579 5.16268 56.9779 4.01409 55.1869 4.01409C52.0662 4.01409 50.6008 6.28575 50.6008 9.98677C50.6008 13.7388 52.0662 15.9595 54.9969 15.9595C57.2221 15.9595 58.579 14.7598 59.0946 12.6413Z" fill="#111111"/>
<path d="M74.3453 16.0105C77.059 16.0105 79.2299 14.2238 79.2299 10.2165C79.2299 6.20918 77.4932 4.09066 74.3453 4.09066C71.1703 4.09066 69.4064 6.20918 69.4064 10.2165C69.4064 14.2238 71.2246 16.0105 74.3453 16.0105ZM74.3453 19.0479C68.8094 19.0479 65.6887 15.8574 65.6887 10.1399C65.6887 4.39695 68.8094 0.951172 74.3453 0.951172C79.8812 0.951172 82.9477 4.39695 82.9477 10.2165C82.9477 16.036 79.8812 19.0479 74.3453 19.0479Z" fill="#111111"/>
<path d="M89.5418 9.39994H93.1238C95.2948 9.39994 96.1903 8.28253 96.1903 6.70179C96.1903 5.20281 95.2948 4.08539 93.1238 4.08539H89.5418V9.39994ZM89.5418 19.0479H85.7698V0.951172H93.7208C97.2486 0.951172 99.501 3.54031 99.501 6.8108C99.501 10.1086 97.2486 12.4797 93.7208 12.4797H89.5418V19.0479Z" fill="#111111"/>
<path d="M116 19.0479H102.323V0.951172H115.566V4.11265H105.987V7.98273H114.806V11.1715H105.987V15.8319H116V19.0479Z" fill="#111111"/>
</svg>
