<svg width="367" height="46" viewBox="0 0 367 46" fill="none" xmlns="http://www.w3.org/2000/svg">
<rect width="367" height="46" rx="8" fill="white"/>
<path d="M32.55 22.5L25.05 30L24 28.95L30.45 22.5L24 16.05L25.05 15L32.55 22.5Z" fill="#757575"/>
<path d="M51.3203 18.6406C51.3203 19.599 51.1693 20.487 50.8672 21.3047C50.5703 22.1224 50.1198 22.8359 49.5156 23.4453C48.9167 24.0495 48.1771 24.5052 47.2969 24.8125L46.1875 23.2422C46.9688 22.9974 47.6172 22.638 48.1328 22.1641C48.6536 21.6901 49.0365 21.151 49.2812 20.5469C49.5312 19.9427 49.6562 19.3073 49.6562 18.6406V17.0938H51.3203V18.6406ZM51.6641 18.6562C51.6641 19.2865 51.7839 19.8828 52.0234 20.4453C52.263 21.0078 52.6328 21.5104 53.1328 21.9531C53.638 22.3958 54.2604 22.7396 55 22.9844L53.9531 24.5469C53.099 24.25 52.3802 23.8125 51.7969 23.2344C51.2188 22.6562 50.7839 21.9766 50.4922 21.1953C50.2057 20.4141 50.0625 19.5677 50.0625 18.6562V17.0938H51.6641V18.6562ZM57.7031 26.6406H55.7109V16.2266H57.7031V26.6406ZM59.625 22.0156H57.125V20.3438H59.625V22.0156ZM58.2344 30.1953H48.4766V28.5859H58.2344V30.1953ZM50.5078 29.4375H48.4766V25.6094H50.5078V29.4375ZM70.4456 21.2969H67.7113V19.6797H70.4456V21.2969ZM71.9144 24.6641H69.93V16.2031H71.9144V24.6641ZM67.055 24.9766C68.0706 24.9766 68.9456 25.0859 69.68 25.3047C70.4144 25.5182 70.9769 25.8307 71.3675 26.2422C71.7633 26.6536 71.9613 27.1458 71.9613 27.7188C71.9613 28.2865 71.7633 28.7734 71.3675 29.1797C70.9769 29.5911 70.4144 29.9062 69.68 30.125C68.9456 30.3438 68.0706 30.4557 67.055 30.4609C66.0498 30.4557 65.18 30.3438 64.4456 30.125C63.7165 29.9062 63.154 29.5911 62.7581 29.1797C62.3675 28.7734 62.1722 28.2865 62.1722 27.7188C62.1722 27.1458 62.3675 26.6536 62.7581 26.2422C63.154 25.8307 63.7165 25.5182 64.4456 25.3047C65.18 25.0859 66.0498 24.9766 67.055 24.9766ZM67.055 26.4922C66.43 26.4922 65.9014 26.5365 65.4691 26.625C65.0368 26.7135 64.7086 26.849 64.4847 27.0312C64.2607 27.2135 64.1488 27.4427 64.1488 27.7188C64.1488 27.9792 64.2607 28.2031 64.4847 28.3906C64.7086 28.5729 65.0368 28.7109 65.4691 28.8047C65.9014 28.8932 66.43 28.9375 67.055 28.9375C67.6956 28.9375 68.2321 28.8932 68.6644 28.8047C69.0967 28.7109 69.4222 28.5729 69.6409 28.3906C69.8597 28.2031 69.9691 27.9792 69.9691 27.7188C69.9691 27.4427 69.8597 27.2135 69.6409 27.0312C69.4222 26.849 69.0967 26.7135 68.6644 26.625C68.2321 26.5365 67.6956 26.4922 67.055 26.4922ZM64.8909 18.5781C64.8909 19.5 64.7425 20.3646 64.4456 21.1719C64.1488 21.9792 63.6982 22.6901 63.0941 23.3047C62.4951 23.9141 61.7581 24.3698 60.8831 24.6719L59.8441 23.0859C60.6045 22.8307 61.2399 22.4688 61.7503 22C62.2659 21.526 62.6461 20.9948 62.8909 20.4062C63.1409 19.8125 63.2659 19.2031 63.2659 18.5781V17.6406H64.8909V18.5781ZM65.2972 18.5625C65.2972 19.1406 65.4144 19.7005 65.6488 20.2422C65.8883 20.7839 66.2529 21.2734 66.7425 21.7109C67.2321 22.1484 67.8415 22.4896 68.5706 22.7344L67.5863 24.2969C66.7269 24.0156 66.0029 23.5885 65.4144 23.0156C64.831 22.4375 64.3961 21.7656 64.1097 21C63.8232 20.2344 63.68 19.4219 63.68 18.5625V17.6406H65.2972V18.5625ZM68.1331 18.6797H60.4144V17.0703H68.1331V18.6797ZM78.4772 18.2344C78.4772 19.151 78.3235 20.0104 78.0163 20.8125C77.709 21.6094 77.248 22.3047 76.6334 22.8984C76.0241 23.4922 75.2741 23.9349 74.3834 24.2266L73.3913 22.6641C74.1569 22.4141 74.7975 22.0599 75.3131 21.6016C75.8288 21.1432 76.209 20.625 76.4538 20.0469C76.6985 19.4635 76.8209 18.8594 76.8209 18.2344V16.8672H78.4772V18.2344ZM78.8913 18.2344C78.8913 18.8542 79.0084 19.4375 79.2428 19.9844C79.4772 20.5312 79.8444 21.0208 80.3444 21.4531C80.8496 21.8802 81.4772 22.2057 82.2272 22.4297L81.2428 24C80.3574 23.7188 79.6152 23.2969 79.0163 22.7344C78.4173 22.1667 77.9668 21.5 77.6647 20.7344C77.3678 19.9688 77.2194 19.1354 77.2194 18.2344V16.8672H78.8913V18.2344ZM85.3366 30.4375H83.3444V26.9141H75.5709V25.3125H85.3366V30.4375ZM85.3366 24.7031H83.3444V16.2031H85.3366V24.7031ZM97.3838 19.1328H88.29V17.5234H97.3838V19.1328ZM99.9228 28.5625H86.9541V26.9453H99.9228V28.5625ZM98.3213 19.2266C98.3213 20.1172 98.3108 20.862 98.29 21.4609C98.2744 22.0547 98.2301 22.7396 98.1572 23.5156C98.0895 24.2917 97.9749 25.1406 97.8134 26.0625L95.79 25.8984C95.9619 25.0443 96.0869 24.237 96.165 23.4766C96.2431 22.7161 96.29 22.0312 96.3056 21.4219C96.3213 20.8073 96.3291 20.0755 96.3291 19.2266V17.5234H98.3213V19.2266ZM113.447 24.6719H100.447V23.1016H113.447V24.6719ZM107.908 25.9062H105.931V23.6484H107.908V25.9062ZM104.033 26.4531H109.915V25.2891H111.9V30.2812H102.072V25.2891H104.033V26.4531ZM109.915 28.7734V27.9062H104.033V28.7734H109.915ZM111.876 20.0859H104.048V21.7422H102.064V18.6953H109.876V17.9219H102.04V16.4219H111.876V20.0859ZM112.142 22.3828H102.064V20.9062H112.142V22.3828ZM122.205 29.1562C121.262 29.1562 120.45 28.9297 119.768 28.4766C119.09 28.0234 118.57 27.362 118.205 26.4922C117.846 25.6172 117.666 24.5677 117.666 23.3438C117.666 22.1198 117.846 21.0729 118.205 20.2031C118.57 19.3333 119.093 18.6719 119.775 18.2188C120.458 17.7604 121.268 17.5312 122.205 17.5312C123.143 17.5312 123.952 17.7604 124.635 18.2188C125.317 18.6719 125.84 19.3359 126.205 20.2109C126.57 21.0807 126.752 22.125 126.752 23.3438C126.752 24.5729 126.57 25.6224 126.205 26.4922C125.846 27.362 125.325 28.0234 124.643 28.4766C123.96 28.9297 123.148 29.1562 122.205 29.1562ZM122.205 27.2188C122.643 27.2188 123.023 27.0755 123.346 26.7891C123.674 26.5026 123.924 26.0703 124.096 25.4922C124.268 24.9089 124.351 24.1927 124.346 23.3438C124.346 22.5 124.26 21.7891 124.088 21.2109C123.916 20.6276 123.669 20.1901 123.346 19.8984C123.023 19.6068 122.643 19.4609 122.205 19.4609C121.768 19.4609 121.387 19.6068 121.064 19.8984C120.747 20.1901 120.499 20.6276 120.322 21.2109C120.145 21.7891 120.057 22.5 120.057 23.3438C120.057 24.1927 120.143 24.9089 120.314 25.4922C120.491 26.0703 120.741 26.5026 121.064 26.7891C121.387 27.0755 121.768 27.2188 122.205 27.2188ZM128.041 27.3047L132.112 23.5625C132.513 23.1771 132.825 22.8594 133.049 22.6094C133.273 22.3542 133.442 22.099 133.557 21.8438C133.677 21.5833 133.737 21.3073 133.737 21.0156C133.737 20.6927 133.658 20.4089 133.502 20.1641C133.346 19.9141 133.132 19.724 132.862 19.5938C132.591 19.4635 132.283 19.3984 131.94 19.3984C131.591 19.3984 131.281 19.4688 131.01 19.6094C130.744 19.75 130.539 19.9557 130.393 20.2266C130.252 20.4922 130.182 20.8021 130.182 21.1562H127.948C127.948 20.4323 128.114 19.7969 128.448 19.25C128.786 18.6979 129.257 18.2734 129.862 17.9766C130.471 17.6797 131.171 17.5312 131.963 17.5312C132.76 17.5312 133.463 17.6719 134.073 17.9531C134.682 18.2344 135.153 18.6276 135.487 19.1328C135.825 19.638 135.994 20.2161 135.994 20.8672C135.994 21.3099 135.908 21.737 135.737 22.1484C135.57 22.5599 135.273 23.0156 134.846 23.5156C134.424 24.0156 133.823 24.6198 133.041 25.3281L131.315 26.9922V27.0703H136.158V29H128.049L128.041 27.3047Z" fill="#757575"/>
</svg>
