<svg width="283" height="46" viewBox="0 0 283 46" fill="none" xmlns="http://www.w3.org/2000/svg">
<rect width="283" height="46" rx="8" fill="#F2F9F8"/>
<rect width="283" height="46" rx="8" stroke="#EAEAEA"/>
<path d="M28 27.5002L20.5 20.0002L21.55 18.9502L28 25.4002L34.45 18.9502L35.5 20.0002L28 27.5002Z" fill="#00B096"/>
<path d="M54.8672 19.0234H45.7578V17.4453H54.8672V19.0234ZM57.3984 28.6953H44.4297V27.0781H57.3984V28.6953ZM51.0469 27.9062H49.0703V22.1875H51.0469V27.9062ZM56.1328 18.7969C56.1328 19.6302 56.1224 20.3411 56.1016 20.9297C56.0807 21.513 56.0312 22.2057 55.9531 23.0078C55.875 23.8047 55.75 24.6693 55.5781 25.6016L53.5547 25.3906C53.737 24.5208 53.8698 23.7005 53.9531 22.9297C54.0365 22.1536 54.0859 21.4688 54.1016 20.875C54.1224 20.276 54.1328 19.5833 54.1328 18.7969V17.4453H56.1328V18.7969ZM62.7347 18.2578C62.7347 19.2214 62.5889 20.1172 62.2972 20.9453C62.0107 21.7734 61.5732 22.4948 60.9847 23.1094C60.3961 23.7188 59.667 24.1745 58.7972 24.4766L57.7269 22.9141C58.4873 22.6536 59.1201 22.2865 59.6253 21.8125C60.1305 21.3333 60.5029 20.7891 60.7425 20.1797C60.9873 19.5703 61.1097 18.9297 61.1097 18.2578V16.9688H62.7347V18.2578ZM63.1097 18.4531C63.1097 19.0469 63.2269 19.612 63.4613 20.1484C63.7008 20.6797 64.0628 21.1536 64.5472 21.5703C65.0368 21.9818 65.6435 22.3021 66.3675 22.5312L65.305 24.0781C64.4769 23.7969 63.7764 23.3802 63.2034 22.8281C62.6305 22.276 62.2034 21.6276 61.9222 20.8828C61.6409 20.1328 61.5003 19.3229 61.5003 18.4531V16.9688H63.1097V18.4531ZM69.2113 24.6484H67.2191V16.2031H69.2113V24.6484ZM71.1331 21.2031H68.6488V19.5391H71.1331V21.2031ZM64.5472 24.9375C65.5264 24.9375 66.3753 25.0469 67.0941 25.2656C67.818 25.4792 68.3727 25.7917 68.7581 26.2031C69.1488 26.6146 69.3441 27.1068 69.3441 27.6797C69.3441 28.2578 69.1488 28.7526 68.7581 29.1641C68.3727 29.5807 67.8206 29.8958 67.1019 30.1094C66.3831 30.3281 65.5316 30.4375 64.5472 30.4375C63.5576 30.4375 62.6956 30.3281 61.9613 30.1094C61.2269 29.8958 60.6618 29.5807 60.2659 29.1641C59.8701 28.7526 59.6722 28.2578 59.6722 27.6797C59.6722 27.1068 59.8701 26.6146 60.2659 26.2031C60.6618 25.7917 61.2269 25.4792 61.9613 25.2656C62.6956 25.0469 63.5576 24.9375 64.5472 24.9375ZM64.5472 26.5C63.9326 26.5 63.4092 26.5443 62.9769 26.6328C62.5498 26.7161 62.2269 26.849 62.0081 27.0312C61.7894 27.2083 61.68 27.4245 61.68 27.6797C61.68 27.9453 61.7894 28.1667 62.0081 28.3438C62.2269 28.5208 62.5472 28.6536 62.9691 28.7422C63.3961 28.8255 63.9222 28.8698 64.5472 28.875C65.1774 28.8698 65.7008 28.8255 66.1175 28.7422C66.5342 28.6536 66.8493 28.5208 67.0628 28.3438C67.2764 28.1667 67.3831 27.9453 67.3831 27.6797C67.3831 27.4193 67.2738 27.2005 67.055 27.0234C66.8415 26.8464 66.5238 26.7161 66.1019 26.6328C65.68 26.5443 65.1618 26.5 64.5472 26.5Z" fill="#00B096"/>
</svg>
