<svg width="240" height="37" viewBox="0 0 240 37" fill="none" xmlns="http://www.w3.org/2000/svg">
<path d="M0 0H29.9532V6.66H0V0Z" fill="#00CD9B"/>
<path d="M0 15.17H29.9532V21.83H0V15.17Z" fill="#00938C"/>
<path d="M0 30.34H29.9532V37H0V30.34Z" fill="#005462"/>
<path d="M52.0437 21.275H38.1903V15.725H52.0437V21.275Z" fill="#111111"/>
<path d="M89.7569 11.3766H82.3458C81.9528 7.82793 79.6508 6.10578 74.9346 6.10578C70.5553 6.10578 68.2534 7.567 68.2534 10.1763C68.2534 12.3681 69.8816 13.6206 74.0363 14.5599C78.2472 15.4993 82.3458 16.4386 85.0969 17.5867C88.3533 18.9436 90.9359 21.0832 90.9359 25.9887C90.9359 33.6079 84.76 37 76.0575 37C66.8498 37 60.4492 33.1904 60.2808 25.4147H67.8042C67.9165 28.9633 71.1168 31.1551 76.1137 31.1551C80.7176 31.1551 83.3564 29.3286 83.3564 26.2496C83.3564 24.2144 82.2335 22.8054 77.5735 21.866C72.9696 20.9267 69.9939 20.3004 67.3551 19.2045C63.3688 17.5346 61.123 15.0296 61.123 10.646C61.123 4.43583 65.6707 0 74.7662 0C84.1986 0 89.4762 4.74894 89.7569 11.3766Z" fill="#111111"/>
<path d="M122.265 23.9013H130.069C128.497 31.7814 122.658 37 114.011 37C104.242 37 96.7748 30.7898 96.7748 18.8914C96.7748 7.14951 103.456 0 114.124 0C123.444 0 129.339 5.53173 130.069 12.5247H122.265C121.198 8.61072 117.885 6.26234 114.18 6.26234C107.723 6.26234 104.691 10.9069 104.691 18.4739C104.691 26.1453 107.723 30.6855 113.787 30.6855C118.391 30.6855 121.198 28.2327 122.265 23.9013Z" fill="#111111"/>
<path d="M153.818 30.7898C159.432 30.7898 163.924 27.1368 163.924 18.9436C163.924 10.7504 160.331 6.4189 153.818 6.4189C147.249 6.4189 143.6 10.7504 143.6 18.9436C143.6 27.1368 147.361 30.7898 153.818 30.7898ZM153.818 37C142.364 37 135.908 30.4767 135.908 18.787C135.908 7.04514 142.364 0 153.818 0C165.271 0 171.616 7.04514 171.616 18.9436C171.616 30.842 165.271 37 153.818 37Z" fill="#111111"/>
<path d="M185.259 17.2741H192.67C197.162 17.2741 199.014 14.9895 199.014 11.7575C199.014 8.69277 197.162 6.40813 192.67 6.40813H185.259V17.2741ZM185.259 37H177.455V0H193.905C201.204 0 205.864 5.29368 205.864 11.9804C205.864 18.7229 201.204 23.5708 193.905 23.5708H185.259V37Z" fill="#111111"/>
<path d="M240 37H211.703V0H239.102V6.46386H219.283V14.3765H237.53V20.8961H219.283V30.4247H240V37Z" fill="#111111"/>
</svg>
