<svg width="20" height="20" viewBox="0 0 20 20" fill="none" xmlns="http://www.w3.org/2000/svg">
<g clip-path="url(#clip0_1941_9533)">
<path d="M17.917 3.33203H16.1115V4.44314H17.7781V16.6654H2.22258V4.44314H3.88925V3.33203H2.08369C1.95382 3.3342 1.82566 3.36193 1.70651 3.41365C1.58736 3.46536 1.47957 3.54004 1.38928 3.63341C1.299 3.72679 1.228 3.83704 1.18033 3.95787C1.13266 4.07869 1.10926 4.20772 1.11147 4.33759V16.7709C1.10926 16.9008 1.13266 17.0298 1.18033 17.1506C1.228 17.2715 1.299 17.3817 1.38928 17.4751C1.47957 17.5685 1.58736 17.6431 1.70651 17.6949C1.82566 17.7466 1.95382 17.7743 2.08369 17.7765H17.917C18.0469 17.7743 18.1751 17.7466 18.2942 17.6949C18.4134 17.6431 18.5212 17.5685 18.6114 17.4751C18.7017 17.3817 18.7727 17.2715 18.8204 17.1506C18.8681 17.0298 18.8915 16.9008 18.8892 16.7709V4.33759C18.8915 4.20772 18.8681 4.07869 18.8204 3.95787C18.7727 3.83704 18.7017 3.72679 18.6114 3.63341C18.5212 3.54004 18.4134 3.46536 18.2942 3.41365C18.1751 3.36193 18.0469 3.3342 17.917 3.33203Z" fill="#757575"/>
<path d="M4.44531 7.77734H5.55642V8.88845H4.44531V7.77734Z" fill="#757575"/>
<path d="M7.77734 7.77734H8.88845V8.88845H7.77734V7.77734Z" fill="#757575"/>
<path d="M11.1113 7.77734H12.2224V8.88845H11.1113V7.77734Z" fill="#757575"/>
<path d="M14.4453 7.77734H15.5564V8.88845H14.4453V7.77734Z" fill="#757575"/>
<path d="M4.44531 10.5547H5.55642V11.6658H4.44531V10.5547Z" fill="#757575"/>
<path d="M7.77734 10.5547H8.88845V11.6658H7.77734V10.5547Z" fill="#757575"/>
<path d="M11.1113 10.5547H12.2224V11.6658H11.1113V10.5547Z" fill="#757575"/>
<path d="M14.4453 10.5547H15.5564V11.6658H14.4453V10.5547Z" fill="#757575"/>
<path d="M4.44531 13.332H5.55642V14.4431H4.44531V13.332Z" fill="#757575"/>
<path d="M7.77734 13.332H8.88845V14.4431H7.77734V13.332Z" fill="#757575"/>
<path d="M11.1113 13.332H12.2224V14.4431H11.1113V13.332Z" fill="#757575"/>
<path d="M14.4453 13.332H15.5564V14.4431H14.4453V13.332Z" fill="#757575"/>
<path d="M5.55556 5.55382C5.7029 5.55382 5.84421 5.49529 5.94839 5.3911C6.05258 5.28691 6.11111 5.14561 6.11111 4.99826V1.66493C6.11111 1.51759 6.05258 1.37628 5.94839 1.27209C5.84421 1.16791 5.7029 1.10938 5.55556 1.10938C5.40821 1.10938 5.26691 1.16791 5.16272 1.27209C5.05853 1.37628 5 1.51759 5 1.66493V4.99826C5 5.14561 5.05853 5.28691 5.16272 5.3911C5.26691 5.49529 5.40821 5.55382 5.55556 5.55382Z" fill="#757575"/>
<path d="M14.4442 5.55382C14.5916 5.55382 14.7329 5.49529 14.8371 5.3911C14.9413 5.28691 14.9998 5.14561 14.9998 4.99826V1.66493C14.9998 1.51759 14.9413 1.37628 14.8371 1.27209C14.7329 1.16791 14.5916 1.10938 14.4442 1.10938C14.2969 1.10938 14.1556 1.16791 14.0514 1.27209C13.9472 1.37628 13.8887 1.51759 13.8887 1.66493V4.99826C13.8887 5.14561 13.9472 5.28691 14.0514 5.3911C14.1556 5.49529 14.2969 5.55382 14.4442 5.55382Z" fill="#757575"/>
<path d="M7.22266 3.33203H12.7782V4.44314H7.22266V3.33203Z" fill="#757575"/>
</g>
<defs>
<clipPath id="clip0_1941_9533">
<rect width="20" height="20" fill="white"/>
</clipPath>
</defs>
</svg>
